<?xml version="1.0" encoding="UTF-8" standalone="no"?>
<svg
   xmlns:dc="http://purl.org/dc/elements/1.1/"
   xmlns:cc="http://creativecommons.org/ns#"
   xmlns:rdf="http://www.w3.org/1999/02/22-rdf-syntax-ns#"
   xmlns:svg="http://www.w3.org/2000/svg"
   xmlns="http://www.w3.org/2000/svg"
   viewBox="0 0 1066.6667 1066.6667"
   height="1066.6667"
   width="1066.6667"
   xml:space="preserve"
   id="svg2"
   version="1.1"><metadata
     id="metadata8"><rdf:RDF><cc:Work
         rdf:about=""><dc:format>image/svg+xml</dc:format><dc:type
           rdf:resource="http://purl.org/dc/dcmitype/StillImage" /><dc:title></dc:title></cc:Work></rdf:RDF></metadata><defs
     id="defs6"><clipPath
       id="clipPath20"
       clipPathUnits="userSpaceOnUse"><path
         id="path18"
         d="M 0,800 H 800 V 0 H 0 Z" /></clipPath></defs><g
     transform="matrix(1.3333333,0,0,-1.3333333,0,1066.6667)"
     id="g10"><g
       transform="matrix(2.4814625,0,0,1.8865993,407.90848,557.18303)"
       id="g22"><path
         id="path24"
         style="fill:#e6e7e8;fill-opacity:1;fill-rule:nonzero;stroke:none"
         d="M 0,0 C 0,0 1.473,16.703 3.637,23.914 H 33.203 L 37.53,0 C 37.53,0 5.693,0.119 0,0" /></g><g
       transform="matrix(2.4814625,0,0,1.8865993,107.35574,364.21411)"
       id="g26"><path
         id="path28"
         style="fill:#e6e7e8;fill-opacity:1;fill-rule:nonzero;stroke:none"
         d="m 0,0 c 0,0 18.749,-76.44 19.471,-129.804 h 160.091 c 0,0 8.22,110.569 14.423,129.804 z" /></g><g
       transform="matrix(2.4814625,0,0,1.8865993,67.987581,354.69075)"
       id="g30"><path
         id="path32"
         style="fill:#008abe;fill-opacity:1;fill-rule:nonzero;stroke:none"
         d="m 0,0 v -5.409 c 0,0 42.547,-17.667 229.32,0 V 0 Z" /></g><g
       transform="matrix(2.4814625,0,0,1.8865993,67.987581,354.69075)"
       id="g34"><path
         id="path36"
         style="fill:#00adee;fill-opacity:1;fill-rule:nonzero;stroke:none"
         d="m 0,0 c 0,0 29.566,56.248 32.451,107.449 0,0 137.736,-2.885 162.255,4.327 0,0 12.259,-85.815 34.614,-111.776 C 229.32,0 59.133,-16.586 0,0" /></g><g
       transform="matrix(2.4814625,0,0,1.8865993,447.95803,617.83154)"
       id="g38"><path
         id="path40"
         style="fill:#00adee;fill-opacity:1;fill-rule:nonzero;stroke:none"
         d="m 0,0 c -16.328,0.853 -21.989,-3.241 -19.332,-8.535 2.656,-5.294 9.286,-4.268 19.332,-4.268 10.046,0 23.047,-0.394 23.047,6.418 C 23.047,0.427 0,0 0,0" /></g><g
       transform="matrix(2.4814625,0,0,1.8865993,318.73612,119.32618)"
       id="g42"><path
         id="path44"
         style="fill:#c1b49a;fill-opacity:1;fill-rule:nonzero;stroke:none"
         d="m 0,0 h 33.519 l 4.341,72.294 c 0,0 -24.88,7.572 -42.457,0 z" /></g><g
       transform="matrix(2.4814625,0,0,1.8865993,314.03872,119.32618)"
       id="g46"><path
         id="path48"
         style="fill:#5a4a42;fill-opacity:1;fill-rule:nonzero;stroke:none"
         d="m 0,0 -4.868,74.998 c 0,0 23.257,9.735 47.595,0 L 37.86,0 33.262,0.361 36.778,71.212 c 0,0 -20.012,5.408 -34.885,0.541 0,0 0.811,-41.105 2.975,-71.753 z" /></g><g
       transform="matrix(2.4814625,0,0,1.8865993,187.08512,278.46176)"
       id="g50"><path
         id="path52"
         style="fill:#ffffff;fill-opacity:1;fill-rule:nonzero;stroke:none"
         d="m 0,0 2.72,-52.037 h 25.312 l 2.929,51.2 z" /></g><g
       transform="matrix(2.4814625,0,0,1.8865993,215.63608,276.88305)"
       id="g54"><path
         id="path56"
         style="fill:#48c7f4;fill-opacity:1;fill-rule:nonzero;stroke:none"
         d="m 0,0 c 0,0 2.51,-15.271 -6.694,-25.731 l 5.648,-23.743 h -5.648 l -4.812,50.311 z" /></g><g
       transform="matrix(2.4814625,0,0,1.8865993,236.91933,274.515)"
       id="g58"><path
         id="path60"
         style="fill:#48c7f4;fill-opacity:1;fill-rule:nonzero;stroke:none"
         d="M 0,0 C 0,0 0.052,-19.35 6.929,-22.331 L 2.301,-45.395 8.159,-47.278 10.878,1.255 Z" /></g><g
       transform="matrix(2.4814625,0,0,1.8865993,187.34468,183.54488)"
       id="g62"><path
         id="path64"
         style="fill:#5a4a42;fill-opacity:1;fill-rule:nonzero;stroke:none"
         d="M 0,0 -3.765,51.775 H 33.262 L 30.124,0 H 26.045 L 27.614,47.069 2.197,47.696 4.707,0 Z" /></g><g
       transform="matrix(2.4814625,0,0,1.8865993,218.23169,276.88305)"
       id="g66"><path
         id="path68"
         style="fill:#5a4a42;fill-opacity:1;fill-rule:nonzero;stroke:none"
         d="M 0,0 1.046,-49.474 H 3.975 V 0 Z" /></g><g
       transform="matrix(2.4814625,0,0,1.8865993,187.08512,239.38991)"
       id="g70"><path
         id="path72"
         style="fill:#5a4a42;fill-opacity:1;fill-rule:nonzero;stroke:none"
         d="m 0,0 1.255,-4.864 27.614,-0.993 v 3.765 z" /></g><g
       transform="matrix(2.4814625,0,0,1.8865993,174.10756,188.87301)"
       id="g74"><path
         id="path76"
         style="fill:#786359;fill-opacity:1;fill-rule:nonzero;stroke:none"
         d="M 0,0 H 40.165 V -9.1 L 0,-7.845 Z" /></g><g
       transform="matrix(2.4814625,0,0,1.8865993,448.34688,283.09902)"
       id="g78"><path
         id="path80"
         style="fill:#ffffff;fill-opacity:1;fill-rule:nonzero;stroke:none"
         d="m 0,0 2.719,-52.037 h 25.313 l 2.929,51.2 z" /></g><g
       transform="matrix(2.4814625,0,0,1.8865993,476.8976,281.52031)"
       id="g82"><path
         id="path84"
         style="fill:#48c7f4;fill-opacity:1;fill-rule:nonzero;stroke:none"
         d="m 0,0 c 0,0 2.51,-15.271 -6.694,-25.731 l 5.648,-23.743 h -5.648 l -4.812,50.311 z" /></g><g
       transform="matrix(2.4814625,0,0,1.8865993,498.1811,279.15226)"
       id="g86"><path
         id="path88"
         style="fill:#48c7f4;fill-opacity:1;fill-rule:nonzero;stroke:none"
         d="M 0,0 C 0,0 0.052,-19.35 6.93,-22.331 L 2.301,-45.395 8.159,-47.278 10.878,1.255 Z" /></g><g
       transform="matrix(2.4814625,0,0,1.8865993,448.60645,188.18232)"
       id="g90"><path
         id="path92"
         style="fill:#5a4a42;fill-opacity:1;fill-rule:nonzero;stroke:none"
         d="M 0,0 -3.766,51.775 H 33.262 L 30.124,0 H 26.045 L 27.613,47.069 2.197,47.696 4.707,0 Z" /></g><g
       transform="matrix(2.4814625,0,0,1.8865993,479.49321,281.52031)"
       id="g94"><path
         id="path96"
         style="fill:#5a4a42;fill-opacity:1;fill-rule:nonzero;stroke:none"
         d="M 0,0 1.046,-49.474 H 3.975 V 0 Z" /></g><g
       transform="matrix(2.4814625,0,0,1.8865993,448.34688,244.02717)"
       id="g98"><path
         id="path100"
         style="fill:#5a4a42;fill-opacity:1;fill-rule:nonzero;stroke:none"
         d="m 0,0 1.255,-4.864 27.614,-0.993 v 3.765 z" /></g><g
       transform="matrix(2.4814625,0,0,1.8865993,435.36933,193.51027)"
       id="g102"><path
         id="path104"
         style="fill:#786359;fill-opacity:1;fill-rule:nonzero;stroke:none"
         d="M 0,0 H 40.165 V -9.1 L 0,-7.845 Z" /></g><g
       transform="matrix(2.4814625,0,0,1.8865993,121.67154,119.32618)"
       id="g106"><path
         id="path108"
         style="fill:#caccce;fill-opacity:1;fill-rule:nonzero;stroke:none"
         d="M 0,0 H 183.889 L 178.841,-12.259 7.932,-15.144 Z" /></g><g
       transform="matrix(2.4814625,0,0,1.8865993,257.29388,548.62674)"
       id="g110"><path
         id="path112"
         style="fill:#98daf8;fill-opacity:1;fill-rule:nonzero;stroke:none"
         d="m 0,0 c 0.101,0.363 0.153,0.597 0.156,0.612 0.051,0.252 0.273,0.434 0.53,0.435 -3.579,0 -6.15,1.338 -7.992,3.125 C -7.783,4.176 -8.26,4.18 -8.731,4.183 -6.803,1.975 -4.008,0.189 0,0" /></g><g
       transform="matrix(2.4814625,0,0,1.8865993,202.629,550.60106)"
       id="g114"><path
         id="path116"
         style="fill:#98daf8;fill-opacity:1;fill-rule:nonzero;stroke:none"
         d="M 0,0 C 0.264,0 0.489,-0.191 0.533,-0.452 0.542,-0.505 0.58,-0.716 0.655,-1.038 3.674,-0.805 5.773,0.989 7.217,3.191 6.766,3.195 6.317,3.2 5.874,3.204 4.508,1.378 2.613,0 0,0" /></g><g
       transform="matrix(2.4814625,0,0,1.8865993,310.42819,548.62617)"
       id="g118"><path
         id="path120"
         style="fill:#98daf8;fill-opacity:1;fill-rule:nonzero;stroke:none"
         d="M 0,0 C 0.011,0.301 0.007,0.479 0.007,0.488 -0.002,0.766 0.201,1.006 0.477,1.042 0.746,1.078 1.01,0.9 1.075,0.629 1.078,0.614 1.138,0.378 1.248,0.011 4.199,0.253 6.357,1.982 7.909,4.118 7.438,4.116 6.966,4.113 6.497,4.111 5.035,2.355 3.095,1.047 0.548,1.047 c -2.532,0 -4.426,1.295 -5.833,3.036 -0.465,0 -0.931,0 -1.394,0 C -5.162,1.926 -3.01,0.193 0,0" /></g><g
       transform="matrix(2.4814625,0,0,1.8865993,258.99715,550.60106)"
       id="g122"><path
         id="path124"
         style="fill:#98daf8;fill-opacity:1;fill-rule:nonzero;stroke:none"
         d="M 0,0 C 0.258,0 0.479,-0.182 0.53,-0.434 0.541,-0.49 0.589,-0.713 0.681,-1.049 4.619,-0.864 7.158,0.875 8.785,3.043 8.339,3.044 7.891,3.045 7.448,3.046 5.872,1.301 3.52,0 0,0" /></g><g
       transform="matrix(2.4814625,0,0,1.8865993,355.17715,548.64485)"
       id="g126"><path
         id="path128"
         style="fill:#98daf8;fill-opacity:1;fill-rule:nonzero;stroke:none"
         d="M 0,0 C 0.006,0.289 0.003,0.469 0.002,0.478 -0.006,0.746 0.183,0.981 0.447,1.028 0.721,1.075 0.972,0.922 1.056,0.667 1.061,0.652 1.149,0.403 1.301,0.019 3.601,0.344 5.29,2.116 6.51,4.261 6.089,4.255 5.668,4.25 5.247,4.245 4.094,2.417 2.557,1.037 0.543,1.037 -1.428,1.037 -2.863,2.37 -3.903,4.15 -4.313,4.146 -4.723,4.144 -5.133,4.141 -4,1.984 -2.358,0.238 0,0" /></g><g
       transform="matrix(2.4814625,0,0,1.8865993,516.14415,548.64164)"
       id="g130"><path
         id="path132"
         style="fill:#98daf8;fill-opacity:1;fill-rule:nonzero;stroke:none"
         d="M 0,0 C 0.026,0.278 0.035,0.466 0.036,0.516 0.046,0.794 0.264,1.019 0.541,1.038 0.838,1.05 1.064,0.861 1.111,0.587 1.113,0.573 1.153,0.352 1.23,0.006 5.178,0.401 7.258,4.3 8.328,7.749 7.939,7.687 7.527,7.627 7.118,7.566 6.045,4.388 4.083,1.039 0.577,1.039 c -3.003,0 -5.37,2.419 -7.074,5.104 C -6.906,6.112 -7.313,6.082 -7.729,6.051 -5.957,3.107 -3.392,0.294 0,0" /></g><g
       transform="matrix(2.4814625,0,0,1.8865993,201.04359,548.63994)"
       id="g134"><path
         id="path136"
         style="fill:#98daf8;fill-opacity:1;fill-rule:nonzero;stroke:none"
         d="M 0,0 C 0.068,0.34 0.1,0.556 0.102,0.57 0.138,0.835 0.362,1.035 0.629,1.039 0.633,1.04 0.636,1.04 0.639,1.04 -2.045,1.04 -4.057,2.49 -5.542,4.388 -6.016,4.394 -6.479,4.401 -6.934,4.407 -5.358,2.122 -3.118,0.233 0,0" /></g><g
       transform="matrix(2.4814625,0,0,1.8865993,406.62804,548.63278)"
       id="g138"><path
         id="path140"
         style="fill:#98daf8;fill-opacity:1;fill-rule:nonzero;stroke:none"
         d="M 0,0 C 0.125,0.38 0.195,0.627 0.199,0.642 0.261,0.875 0.471,1.039 0.713,1.043 0.982,1.057 1.169,0.89 1.239,0.658 1.244,0.643 1.326,0.386 1.469,-0.008 4.177,0.141 6.369,1.094 7.982,2.85 8.524,3.441 8.962,4.091 9.331,4.765 8.906,4.752 8.477,4.74 8.05,4.728 7.795,4.327 7.514,3.939 7.185,3.582 5.639,1.897 3.464,1.043 0.721,1.043 c -3.59,0 -6.137,1.443 -7.938,3.332 C -7.666,4.368 -8.118,4.361 -8.568,4.353 -6.694,2.078 -3.955,0.209 0,0" /></g><g
       transform="matrix(2.4814625,0,0,1.8865993,462.64408,548.6373)"
       id="g142"><path
         id="path144"
         style="fill:#98daf8;fill-opacity:1;fill-rule:nonzero;stroke:none"
         d="M 0,0 C 0.229,0.43 0.366,0.712 0.373,0.729 0.472,0.94 0.687,1.068 0.928,1.037 1.159,1.009 1.347,0.835 1.393,0.607 1.405,0.551 1.453,0.325 1.544,-0.013 4.443,0.122 6.801,1.113 8.545,2.96 9.368,3.831 9.984,4.817 10.452,5.824 10.036,5.797 9.622,5.77 9.2,5.744 8.817,5.022 8.347,4.325 7.759,3.702 6.091,1.936 3.77,1.041 0.863,1.041 c -4.079,0 -6.848,1.738 -8.721,3.9 C -8.289,4.925 -8.718,4.909 -9.152,4.894 -7.243,2.402 -4.339,0.257 0,0" /></g><g
       transform="matrix(2.4814625,0,0,1.8865993,554.1552,551.03799)"
       id="g146"><path
         id="path148"
         style="fill:#98daf8;fill-opacity:1;fill-rule:nonzero;stroke:none"
         d="M 0,0 C -0.085,0.51 -0.165,0.996 -0.241,1.46 -2.122,2.887 -3.435,5 -4.316,6.96 -4.669,6.889 -5.018,6.818 -5.396,6.75 -4.325,4.307 -2.612,1.575 0,0" /></g><g
       transform="matrix(2.4814625,0,0,1.8865993,148.86117,550.59899)"
       id="g150"><path
         id="path152"
         style="fill:#98daf8;fill-opacity:1;fill-rule:nonzero;stroke:none"
         d="M 0,0 C 0.268,0.007 0.469,-0.137 0.547,-0.369 0.552,-0.384 0.644,-0.643 0.805,-1.039 4.66,-0.806 7.174,1.124 8.797,3.448 8.335,3.456 7.886,3.463 7.456,3.47 5.873,1.515 3.525,0.001 0.034,0.001 -0.111,0.001 -0.248,0.012 -0.389,0.017 -0.398,-0.086 -0.406,-0.188 -0.414,-0.291 -0.326,-0.134 -0.187,-0.012 0,0" /></g><g
       transform="matrix(2.4814625,0,0,1.8865993,175.22596,528.32221)"
       id="g154"><path
         id="path156"
         style="fill:#98daf8;fill-opacity:1;fill-rule:nonzero;stroke:none"
         d="M 0,0 C 0.034,0.291 0.047,0.468 0.048,0.482 0.063,0.756 0.282,0.976 0.557,0.991 0.864,0.999 1.073,0.813 1.121,0.542 1.124,0.526 1.166,0.295 1.252,-0.086 c 0.019,0 0.037,-0.004 0.056,-0.004 6.271,0 8.837,5.852 9.782,9.129 0.996,-2.932 3.504,-7.935 9.091,-8.938 0.039,0.248 0.058,0.399 0.06,0.411 0.031,0.271 0.257,0.476 0.529,0.48 h 0.008 c 0.269,0 0.497,-0.198 0.536,-0.464 0.008,-0.056 0.04,-0.263 0.104,-0.576 0.265,-0.017 0.526,-0.042 0.803,-0.042 7.286,0 10.421,6.278 11.541,9.455 1.071,-2.992 3.978,-8.728 10.619,-9.388 0.013,0.255 0.015,0.424 0.015,0.474 0,0.284 0.22,0.519 0.503,0.539 0.283,0.024 0.532,-0.182 0.574,-0.462 0.002,-0.016 0.036,-0.242 0.11,-0.614 0.026,0 0.049,-0.004 0.075,-0.004 2.846,0 5.15,0.889 6.846,2.642 1.761,1.82 2.515,4.202 2.837,6.021 1.261,-3.194 4.104,-8.238 9.492,-8.625 0.081,0.362 0.12,0.579 0.123,0.594 0.047,0.268 0.259,0.437 0.557,0.449 0.271,-0.011 0.492,-0.223 0.515,-0.493 10e-4,-0.016 0.02,-0.219 0.063,-0.562 1.813,0.124 3.342,0.811 4.546,2.056 1.882,1.945 2.575,4.823 2.828,6.861 1.215,-2.612 3.649,-6.744 7.359,-8.309 0.045,0.258 0.266,0.447 0.53,0.448 0.269,0 0.496,-0.198 0.535,-0.464 0.006,-0.043 0.027,-0.176 0.064,-0.373 0.611,-0.157 1.252,-0.245 1.925,-0.245 5.903,0 8.997,6.597 10.12,9.68 1.131,-2.849 4.064,-8.729 9.191,-9.57 -0.008,0.232 -0.018,0.376 -0.019,0.385 -0.025,0.292 0.186,0.55 0.478,0.583 0.275,0.033 0.554,-0.17 0.597,-0.46 0.008,-0.059 0.042,-0.278 0.111,-0.612 0.025,-0.001 0.049,-0.006 0.075,-0.006 6.036,0 10.505,6.974 12.108,9.888 0.905,-2.774 3.618,-8.878 10.074,-9.768 0,0.235 -0.006,0.382 -0.007,0.39 -0.015,0.275 0.178,0.518 0.449,0.564 0.276,0.05 0.536,-0.119 0.611,-0.384 0.005,-0.017 0.078,-0.265 0.214,-0.67 0.118,-0.003 0.227,-0.02 0.348,-0.02 6.708,0 9.045,5.276 9.855,8.631 0.967,-3.117 3.164,-7.943 7.574,-8.562 0.041,0.315 0.058,0.503 0.06,0.518 0.023,0.271 0.244,0.483 0.515,0.494 0.289,-0.007 0.51,-0.181 0.557,-0.449 0.003,-0.015 0.043,-0.239 0.129,-0.61 2.947,0.127 5.344,2.058 7.142,4.289 -0.09,0.499 -0.177,0.987 -0.262,1.467 -1.754,-2.425 -4.186,-4.696 -7.181,-4.696 -5.443,0 -7.52,7.617 -8.001,9.785 -0.077,0.346 -0.117,0.566 -0.119,0.58 -0.047,0.274 -0.273,0.463 -0.57,0.451 -0.277,-0.019 -0.495,-0.244 -0.505,-0.522 -0.001,-0.049 -0.01,-0.238 -0.036,-0.516 -0.194,-2.092 -1.433,-9.778 -9.158,-9.778 -7.661,0 -10.253,7.514 -10.857,9.763 -0.091,0.339 -0.14,0.564 -0.151,0.62 -0.047,0.229 -0.235,0.402 -0.466,0.43 -0.241,0.031 -0.455,-0.096 -0.555,-0.308 -0.007,-0.016 -0.144,-0.298 -0.373,-0.729 -1.255,-2.359 -5.655,-9.776 -11.395,-9.776 -5.732,0 -8.883,7.487 -9.71,9.766 -0.143,0.394 -0.225,0.651 -0.23,0.666 -0.069,0.232 -0.256,0.399 -0.526,0.385 -0.242,-0.004 -0.452,-0.168 -0.514,-0.402 -0.004,-0.014 -0.074,-0.261 -0.199,-0.641 -0.736,-2.248 -3.628,-9.774 -9.374,-9.774 -5.757,0 -9.167,7.54 -10.059,9.799 -0.152,0.384 -0.239,0.633 -0.244,0.648 -0.085,0.255 -0.336,0.408 -0.61,0.361 -0.264,-0.047 -0.453,-0.282 -0.445,-0.55 0.001,-0.009 0.005,-0.189 -0.002,-0.478 C 72.487,9.368 72.193,5.156 69.859,2.744 68.736,1.581 67.265,0.992 65.489,0.992 c -6.356,0 -9.09,7.564 -9.756,9.781 -0.11,0.367 -0.17,0.603 -0.173,0.618 -0.065,0.272 -0.329,0.45 -0.598,0.413 -0.276,-0.036 -0.479,-0.275 -0.47,-0.553 0,-0.01 0.004,-0.188 -0.007,-0.489 C 54.435,9.441 54.077,5.731 51.722,3.3 50.239,1.768 48.198,0.992 45.658,0.992 c -7.976,0 -10.611,7.527 -11.219,9.768 -0.091,0.336 -0.139,0.56 -0.15,0.615 -0.051,0.252 -0.272,0.434 -0.53,0.434 -0.258,-10e-4 -0.48,-0.182 -0.53,-0.435 -0.003,-0.015 -0.055,-0.248 -0.157,-0.611 -0.614,-2.208 -3.269,-9.771 -10.851,-9.771 -7.681,0 -10.008,7.571 -10.523,9.779 -0.075,0.322 -0.112,0.533 -0.121,0.586 -0.045,0.261 -0.27,0.452 -0.534,0.452 -0.003,0 -0.006,0 -0.009,-10e-4 C 10.766,11.804 10.542,11.604 10.507,11.339 10.505,11.325 10.472,11.11 10.404,10.769 9.975,8.618 7.983,0.992 1.308,0.992 c -6.648,0 -10.198,7.492 -11.127,9.777 -0.161,0.396 -0.253,0.655 -0.258,0.67 -0.079,0.232 -0.279,0.376 -0.548,0.369 -0.187,-0.012 -0.326,-0.134 -0.414,-0.291 -0.113,-1.388 -0.244,-2.779 -0.393,-4.171 0.405,0.838 0.711,1.619 0.925,2.25 C -9.243,6.741 -5.921,0.783 0,0" /></g><g
       transform="matrix(2.4814625,0,0,1.8865993,147.62913,505.56529)"
       id="g158"><path
         id="path160"
         style="fill:#98daf8;fill-opacity:1;fill-rule:nonzero;stroke:none"
         d="M 0,0 C 0.048,0.24 0.251,0.418 0.497,0.434 0.765,0.437 0.965,0.297 1.044,0.065 1.049,0.05 1.141,-0.209 1.302,-0.605 c 7.133,0.431 9.654,6.71 10.514,10.416 1.11,-3.688 3.864,-9.979 9.709,-10.416 0.068,0.34 0.101,0.556 0.103,0.57 0.036,0.265 0.26,0.465 0.527,0.469 0.29,0.044 0.497,-0.187 0.543,-0.451 0.009,-0.054 0.046,-0.264 0.121,-0.586 5.9,0.455 8.284,6.905 9.159,10.575 1.173,-3.684 4.37,-10.214 12.216,-10.584 0.101,0.363 0.153,0.597 0.156,0.612 0.05,0.253 0.272,0.434 0.53,0.435 -9.366,0 -11.847,9.149 -12.341,11.58 -0.063,0.312 -0.096,0.519 -0.104,0.576 -0.039,0.266 -0.267,0.463 -0.535,0.463 H 31.891 C 31.62,13.05 31.394,12.845 31.362,12.575 31.36,12.562 31.342,12.411 31.303,12.163 30.97,10.053 29.074,0.435 22.164,0.435 c -6.709,0 -9.227,9.054 -9.791,11.541 -0.086,0.381 -0.128,0.613 -0.131,0.629 -0.047,0.27 -0.257,0.456 -0.564,0.448 C 11.403,13.038 11.185,12.819 11.169,12.544 11.168,12.53 11.156,12.354 11.121,12.062 10.857,9.82 9.233,0.435 0.53,0.435 c -1.395,0 -2.623,0.239 -3.713,0.642 -0.072,-0.356 -0.147,-0.71 -0.221,-1.064 0.973,-0.349 2.06,-0.558 3.249,-0.622 0.1,0.362 0.152,0.594 0.155,0.609" /></g><g
       transform="matrix(2.4814625,0,0,1.8865993,539.79671,528.19487)"
       id="g162"><path
         id="path164"
         style="fill:#98daf8;fill-opacity:1;fill-rule:nonzero;stroke:none"
         d="M 0,0 C -0.086,0.37 -0.126,0.594 -0.129,0.61 -0.175,0.878 -0.397,1.051 -0.685,1.059 -0.957,1.047 -1.178,0.836 -1.201,0.565 -1.202,0.55 -1.22,0.361 -1.26,0.046 -1.557,-2.265 -3.113,-11.56 -8.955,-11.56 c -5.798,0 -9.228,9.007 -10.083,11.557 -0.136,0.406 -0.209,0.654 -0.214,0.671 -0.075,0.264 -0.335,0.433 -0.61,0.384 -0.272,-0.046 -0.465,-0.289 -0.449,-0.564 0,-0.009 0.006,-0.156 0.007,-0.391 0.002,-1.352 -0.203,-6.005 -3.028,-8.996 -1.668,-1.765 -3.989,-2.661 -6.896,-2.661 -9.318,0 -11.822,9.056 -12.334,11.543 -0.069,0.334 -0.103,0.554 -0.111,0.613 -0.042,0.29 -0.321,0.492 -0.597,0.46 -0.291,-0.033 -0.503,-0.292 -0.477,-0.583 0,-0.009 0.01,-0.154 0.018,-0.385 0.045,-1.362 -0.011,-6.124 -2.751,-9.11 -1.547,-1.684 -3.722,-2.538 -6.464,-2.538 -9.325,0 -11.635,9.712 -12.021,11.782 -0.037,0.198 -0.057,0.33 -0.064,0.374 -0.039,0.265 -0.266,0.464 -0.535,0.464 -0.263,-0.001 -0.485,-0.191 -0.53,-0.448 -0.001,-0.006 -0.005,-0.011 -0.006,-0.017 -0.017,-0.121 -1.804,-12.155 -7.756,-12.155 -5.177,0 -6.67,9.177 -6.97,11.564 -0.044,0.343 -0.062,0.546 -0.064,0.561 -0.023,0.271 -0.244,0.482 -0.515,0.494 -0.298,-0.013 -0.509,-0.181 -0.557,-0.449 -0.002,-0.016 -0.042,-0.233 -0.123,-0.594 -0.549,-2.44 -3.06,-11.576 -9.8,-11.576 -6.712,0 -8.963,9.078 -9.45,11.542 -0.073,0.372 -0.108,0.597 -0.11,0.613 -0.041,0.281 -0.291,0.486 -0.574,0.463 -0.283,-0.02 -0.502,-0.256 -0.502,-0.539 0,-0.05 -0.002,-0.22 -0.016,-0.475 -0.117,-2.256 -1.173,-11.604 -10.622,-11.604 0.258,0 0.48,-0.182 0.53,-0.434 0.012,-0.056 0.06,-0.279 0.151,-0.615 7.41,0.348 9.854,6.227 10.651,10.003 1.091,-3.752 3.711,-9.637 9.394,-10.001 0.012,0.301 0.007,0.479 0.007,0.489 -0.008,0.277 0.194,0.517 0.47,0.553 0.269,0.037 0.534,-0.141 0.598,-0.413 0.003,-0.015 0.063,-0.251 0.173,-0.618 5.757,0.472 8.497,6.633 9.621,10.319 0.716,-3.707 2.597,-9.859 7.165,-10.32 0.006,0.289 0.002,0.469 0.002,0.478 -0.009,0.268 0.18,0.503 0.444,0.55 0.274,0.044 0.525,-0.106 0.61,-0.361 0.005,-0.015 0.093,-0.264 0.244,-0.648 4.567,0.645 6.73,7.005 7.591,10.601 1.138,-3.666 4.247,-10.226 11.843,-10.627 0.124,0.381 0.194,0.627 0.198,0.642 0.062,0.234 0.273,0.398 0.515,0.402 0.269,-0.014 0.456,-0.154 0.526,-0.385 0.004,-0.016 0.086,-0.272 0.229,-0.666 2.708,0.148 4.9,1.101 6.513,2.858 1.845,2.009 2.59,4.669 2.879,6.786 1.381,-3.728 4.623,-9.214 11.713,-9.634 0.229,0.431 0.366,0.712 0.373,0.729 0.1,0.211 0.314,0.337 0.555,0.308 0.231,-0.028 0.419,-0.202 0.466,-0.43 0.011,-0.056 0.06,-0.282 0.151,-0.621 2.899,0.136 5.256,1.127 7,2.974 2.111,2.234 2.893,5.224 3.175,7.389 1.468,-3.671 4.708,-9.902 9.84,-10.347 0.026,0.278 0.035,0.467 0.037,0.516 0.009,0.278 0.228,0.503 0.505,0.522 0.296,0.016 0.522,-0.177 0.569,-0.451 0.002,-0.014 0.042,-0.235 0.119,-0.581 5.048,0.506 7.045,6.752 7.781,10.432 1.17,-3.657 4.078,-9.931 10.252,-10.432 0.171,0.401 0.271,0.663 0.277,0.678 0.043,0.118 0.125,0.206 0.226,0.267 -0.007,0.034 -0.015,0.068 -0.022,0.101 C 3.102,-11.297 0.561,-2.426 0,0" /></g><g
       transform="matrix(2.4814625,0,0,1.8865993,149.15225,502.2113)"
       id="g166"><path
         id="path168"
         style="fill:#98daf8;fill-opacity:1;fill-rule:nonzero;stroke:none"
         d="m 0,0 c 1.265,-2.856 4.588,-8.817 10.512,-9.597 0.028,0.26 0.04,0.432 0.043,0.483 0.016,0.275 0.236,0.493 0.509,0.509 0.308,0.006 0.517,-0.179 0.564,-0.449 0.003,-0.016 0.045,-0.248 0.131,-0.629 0.019,0 0.037,-0.003 0.056,-0.003 6.272,0 8.838,5.852 9.782,9.128 0.997,-2.932 3.504,-7.935 9.092,-8.937 0.039,0.248 0.058,0.399 0.059,0.412 0.032,0.269 0.258,0.474 0.53,0.478 0.284,-0.022 0.504,-0.195 0.543,-0.463 0.008,-0.057 0.041,-0.264 0.104,-0.576 0.266,-0.018 0.526,-0.042 0.804,-0.042 7.285,0 10.421,6.277 11.54,9.455 1.071,-2.992 3.978,-8.728 10.619,-9.389 0.013,0.256 0.015,0.425 0.016,0.475 0,0.284 0.219,0.519 0.502,0.539 0.283,0.027 0.533,-0.182 0.574,-0.463 0.002,-0.016 0.037,-0.241 0.11,-0.613 0.026,0 0.049,-0.004 0.075,-0.004 2.847,0 5.151,0.889 6.846,2.642 1.761,1.819 2.515,4.202 2.837,6.02 1.261,-3.193 4.105,-8.237 9.492,-8.624 0.082,0.361 0.121,0.578 0.123,0.594 0.048,0.268 0.298,0.457 0.556,0.449 0.272,-0.012 0.493,-0.223 0.516,-0.494 0.002,-0.015 0.02,-0.218 0.064,-0.561 1.812,0.124 3.342,0.81 4.545,2.055 1.883,1.946 2.576,4.823 2.828,6.862 1.215,-2.612 3.649,-6.745 7.359,-8.309 0.045,0.257 0.267,0.447 0.53,0.448 0.269,0 0.496,-0.198 0.535,-0.465 0.007,-0.043 0.027,-0.175 0.064,-0.373 0.611,-0.157 1.253,-0.244 1.926,-0.244 5.902,0 8.996,6.597 10.119,9.68 1.132,-2.849 4.064,-8.729 9.191,-9.57 -0.008,0.231 -0.018,0.376 -0.018,0.385 -0.025,0.291 0.187,0.55 0.477,0.583 0.29,0.03 0.555,-0.171 0.597,-0.46 0.009,-0.059 0.043,-0.279 0.111,-0.613 0.026,0 0.049,-0.005 0.075,-0.005 6.037,0 10.505,6.974 12.109,9.888 0.904,-2.775 3.617,-8.878 10.073,-9.768 0,0.234 -0.006,0.381 -0.006,0.39 -0.016,0.275 0.178,0.518 0.45,0.564 0.268,0.048 0.534,-0.119 0.609,-0.385 0.005,-0.017 0.078,-0.264 0.214,-0.669 0.118,-0.004 0.228,-0.02 0.348,-0.02 6.708,0 9.046,5.276 9.855,8.631 0.967,-3.118 3.164,-7.943 7.575,-8.562 0.04,0.315 0.058,0.504 0.059,0.518 0.023,0.271 0.244,0.482 0.516,0.494 0.288,-0.006 0.51,-0.181 0.556,-0.449 0.003,-0.016 0.043,-0.24 0.129,-0.61 5.527,0.238 9.129,6.849 10.456,9.786 0.114,-0.309 0.258,-0.664 0.419,-1.04 -0.22,1.028 -0.433,2.041 -0.641,3.043 -0.101,-0.061 -0.183,-0.149 -0.226,-0.267 -0.006,-0.015 -0.106,-0.277 -0.277,-0.678 -0.978,-2.297 -4.585,-9.784 -10.032,-9.784 -5.443,0 -7.52,7.616 -8.001,9.784 -0.077,0.346 -0.117,0.567 -0.119,0.581 -0.046,0.273 -0.273,0.466 -0.569,0.45 -0.277,-0.018 -0.496,-0.244 -0.505,-0.521 -0.002,-0.05 -0.011,-0.238 -0.037,-0.516 -0.194,-2.093 -1.432,-9.778 -9.158,-9.778 -7.66,0 -10.253,7.514 -10.857,9.762 -0.091,0.339 -0.14,0.565 -0.151,0.62 -0.046,0.229 -0.234,0.403 -0.466,0.43 -0.241,0.03 -0.455,-0.096 -0.554,-0.308 -0.008,-0.016 -0.144,-0.298 -0.373,-0.728 -1.255,-2.359 -5.656,-9.776 -11.396,-9.776 -5.732,0 -8.883,7.487 -9.71,9.765 -0.143,0.394 -0.225,0.651 -0.229,0.667 -0.07,0.231 -0.257,0.371 -0.526,0.385 -0.242,-0.005 -0.453,-0.168 -0.515,-0.402 -0.004,-0.015 -0.074,-0.262 -0.198,-0.642 -0.736,-2.248 -3.629,-9.773 -9.374,-9.773 -5.758,0 -9.167,7.539 -10.06,9.799 -0.151,0.384 -0.239,0.633 -0.244,0.648 -0.085,0.254 -0.336,0.405 -0.609,0.361 -0.265,-0.048 -0.454,-0.282 -0.445,-0.55 0,-0.01 0.004,-0.189 -0.002,-0.478 -0.032,-1.404 -0.326,-5.617 -2.659,-8.028 -1.124,-1.163 -2.595,-1.752 -4.37,-1.752 -6.356,0 -9.091,7.563 -9.757,9.781 -0.11,0.367 -0.169,0.603 -0.173,0.618 -0.064,0.271 -0.328,0.45 -0.598,0.413 -0.276,-0.037 -0.478,-0.276 -0.47,-0.554 0,-0.009 0.005,-0.187 -0.007,-0.488 -0.05,-1.321 -0.407,-5.032 -2.763,-7.463 -1.483,-1.531 -3.524,-2.307 -6.064,-2.307 -7.976,0 -10.61,7.526 -11.218,9.768 C 44.856,1.5 44.808,1.723 44.797,1.778 44.746,2.031 44.524,2.213 44.266,2.213 44.008,2.212 43.787,2.03 43.736,1.778 43.733,1.763 43.681,1.529 43.58,1.166 c -0.614,-2.208 -3.27,-9.77 -10.851,-9.77 -7.681,0 -10.008,7.571 -10.523,9.779 C 22.131,1.497 22.093,1.707 22.084,1.761 22.038,2.025 21.831,2.256 21.541,2.212 21.274,2.208 21.05,2.008 21.014,1.743 21.012,1.729 20.98,1.513 20.912,1.173 20.482,-0.979 18.49,-8.604 11.815,-8.604 5.167,-8.604 1.617,-1.113 0.688,1.172 0.527,1.569 0.435,1.827 0.43,1.843 0.352,2.075 0.151,2.215 -0.117,2.211 -0.362,2.196 -0.566,2.018 -0.614,1.778 -0.617,1.763 -0.668,1.531 -0.769,1.169 -1.194,-0.36 -2.61,-4.458 -5.971,-6.837 -6.095,-7.344 -6.223,-7.849 -6.35,-8.354 -2.592,-6.268 -0.755,-2.229 0,0" /></g><g
       transform="matrix(2.4814625,0,0,1.8865993,147.26186,460.199)"
       id="g170"><path
         id="path172"
         style="fill:#98daf8;fill-opacity:1;fill-rule:nonzero;stroke:none"
         d="M 0,0 C 0.089,0.334 0.137,0.555 0.148,0.61 0.197,0.85 0.4,1.028 0.645,1.043 0.913,1.055 1.113,0.906 1.192,0.674 1.197,0.659 1.289,0.4 1.45,0.004 c 7.133,0.432 9.654,6.711 10.514,10.417 1.11,-3.688 3.864,-9.979 9.709,-10.417 0.068,0.341 0.101,0.556 0.103,0.571 0.036,0.265 0.26,0.464 0.527,0.469 0.29,0.051 0.497,-0.187 0.543,-0.451 0.009,-0.054 0.046,-0.265 0.121,-0.587 5.9,0.455 8.284,6.906 9.159,10.576 1.173,-3.685 4.371,-10.219 12.223,-10.585 0.09,0.335 0.137,0.558 0.149,0.613 0.05,0.252 0.272,0.434 0.53,0.434 0.258,0 0.479,-0.182 0.53,-0.434 0.011,-0.055 0.059,-0.279 0.151,-0.615 7.409,0.348 9.854,6.227 10.65,10.004 1.091,-3.752 3.712,-9.638 9.395,-10.002 0.012,0.301 0.007,0.48 0.007,0.489 -0.009,0.278 0.194,0.517 0.47,0.553 0.269,0.033 0.533,-0.141 0.598,-0.413 0.003,-0.014 0.063,-0.251 0.173,-0.618 5.757,0.472 8.497,6.634 9.621,10.32 0.716,-3.707 2.596,-9.86 7.164,-10.321 0.007,0.29 0.003,0.469 0.003,0.478 -0.009,0.269 0.18,0.503 0.444,0.551 0.274,0.046 0.525,-0.107 0.61,-0.362 0.005,-0.015 0.092,-0.264 0.244,-0.648 4.567,0.645 6.73,7.006 7.591,10.601 C 93.817,6.961 96.926,0.401 104.521,0 c 0.125,0.381 0.195,0.628 0.199,0.643 0.063,0.233 0.272,0.397 0.514,0.401 0.27,-0.001 0.457,-0.153 0.526,-0.385 0.005,-0.015 0.087,-0.272 0.23,-0.667 2.708,0.149 4.9,1.102 6.513,2.859 1.845,2.009 2.59,4.669 2.879,6.786 1.382,-3.727 4.623,-9.214 11.713,-9.634 0.229,0.431 0.366,0.713 0.373,0.729 0.1,0.211 0.314,0.336 0.555,0.308 0.231,-0.027 0.419,-0.201 0.466,-0.43 0.011,-0.056 0.06,-0.282 0.151,-0.621 2.898,0.136 5.256,1.127 7,2.974 2.111,2.234 2.893,5.225 3.175,7.39 1.468,-3.671 4.708,-9.902 9.839,-10.348 0.027,0.279 0.036,0.468 0.037,0.517 0.01,0.277 0.229,0.503 0.507,0.521 0.271,0.033 0.521,-0.176 0.568,-0.45 0.002,-0.015 0.042,-0.235 0.119,-0.582 5.047,0.506 7.045,6.753 7.781,10.432 1.17,-3.657 4.078,-9.931 10.252,-10.432 0.171,0.401 0.271,0.663 0.277,0.679 0.081,0.221 0.289,0.358 0.532,0.354 0.236,-0.011 0.437,-0.173 0.499,-0.401 0.004,-0.015 0.076,-0.265 0.206,-0.649 1.641,0.124 3.061,0.677 4.24,1.647 -0.101,0.393 -0.203,0.787 -0.303,1.18 -1.217,-1.174 -2.783,-1.777 -4.666,-1.777 -7.346,0 -9.948,9.1 -10.516,11.561 -0.086,0.37 -0.126,0.594 -0.129,0.61 -0.046,0.268 -0.268,0.443 -0.557,0.449 -0.271,-0.012 -0.492,-0.223 -0.515,-0.494 -10e-4,-0.015 -0.019,-0.204 -0.06,-0.519 -0.297,-2.312 -1.858,-11.607 -7.694,-11.607 -5.798,0 -9.229,9.009 -10.083,11.558 -0.136,0.405 -0.209,0.653 -0.214,0.67 -0.075,0.266 -0.341,0.433 -0.609,0.384 -0.272,-0.045 -0.466,-0.288 -0.451,-0.563 0.001,-0.009 0.007,-0.156 0.007,-0.391 0.001,-1.353 -0.209,-6.016 -3.032,-9.001 -1.668,-1.763 -3.987,-2.657 -6.891,-2.657 -9.318,0 -11.822,9.057 -12.334,11.544 -0.069,0.334 -0.103,0.554 -0.111,0.613 -0.043,0.289 -0.308,0.49 -0.597,0.46 -0.291,-0.034 -0.502,-0.292 -0.478,-0.583 0.001,-0.009 0.011,-0.154 0.018,-0.385 0.044,-1.364 -0.016,-6.135 -2.755,-9.114 -1.545,-1.682 -3.719,-2.535 -6.459,-2.535 -9.326,0 -11.635,9.714 -12.021,11.783 -0.037,0.198 -0.057,0.33 -0.064,0.373 -0.039,0.266 -0.266,0.464 -0.535,0.464 -0.264,0 -0.485,-0.19 -0.53,-0.447 C 92.092,13.211 92.088,13.206 92.087,13.2 92.07,13.079 90.283,1.044 84.33,1.044 c -5.176,0 -6.669,9.177 -6.97,11.565 -0.043,0.342 -0.061,0.546 -0.063,0.561 -0.023,0.271 -0.244,0.482 -0.516,0.494 -0.258,0.008 -0.508,-0.181 -0.556,-0.449 -0.002,-0.016 -0.042,-0.233 -0.123,-0.595 -0.548,-2.439 -3.053,-11.576 -9.8,-11.576 -6.712,0 -8.963,9.078 -9.45,11.542 -0.074,0.373 -0.108,0.598 -0.11,0.614 -0.041,0.281 -0.291,0.49 -0.574,0.463 -0.283,-0.02 -0.503,-0.255 -0.503,-0.539 0,-0.05 -0.002,-0.219 -0.016,-0.475 C 55.529,10.392 54.46,1.044 45.028,1.044 c -9.366,0 -11.847,9.15 -12.341,11.581 -0.063,0.312 -0.096,0.519 -0.104,0.576 -0.039,0.268 -0.259,0.441 -0.543,0.463 C 31.768,13.66 31.542,13.455 31.51,13.185 31.508,13.172 31.49,13.022 31.45,12.773 31.116,10.662 29.213,1.044 22.312,1.044 c -6.709,0 -9.227,9.055 -9.791,11.542 -0.086,0.381 -0.128,0.613 -0.131,0.629 -0.048,0.27 -0.257,0.455 -0.564,0.448 C 11.552,13.648 11.333,13.429 11.317,13.155 11.314,13.104 11.302,12.931 11.274,12.672 11.03,10.396 9.49,1.044 0.678,1.044 c -4.083,0 -6.779,2.001 -8.546,4.38 C -7.984,5.017 -8.1,4.611 -8.217,4.206 -6.394,1.993 -3.757,0.199 0,0" /></g><g
       transform="matrix(2.4814625,0,0,1.8865993,117.20143,440.91569)"
       id="g174"><path
         id="path176"
         style="fill:#98daf8;fill-opacity:1;fill-rule:nonzero;stroke:none"
         d="m 0,0 c 0.045,0.26 0.27,0.449 0.533,0.449 h 0.008 c 0.266,-0.004 0.49,-0.201 0.528,-0.464 0.008,-0.059 0.042,-0.279 0.11,-0.615 0.026,0 0.05,-0.003 0.076,-0.003 7.466,0 10.574,6.594 11.621,9.686 1.265,-2.856 4.588,-8.817 10.512,-9.597 0.028,0.26 0.04,0.433 0.043,0.484 0.016,0.273 0.235,0.492 0.509,0.508 0.307,0.005 0.516,-0.179 0.564,-0.448 0.003,-0.016 0.045,-0.248 0.131,-0.629 0.019,-0.001 0.037,-0.004 0.056,-0.004 6.271,0 8.837,5.852 9.782,9.128 0.997,-2.932 3.504,-7.934 9.091,-8.937 0.04,0.248 0.058,0.399 0.06,0.411 0.032,0.271 0.258,0.476 0.53,0.48 0.284,0.022 0.504,-0.196 0.543,-0.464 0.008,-0.056 0.041,-0.264 0.104,-0.576 0.265,-0.018 0.526,-0.042 0.803,-0.042 7.286,0 10.421,6.277 11.541,9.454 1.071,-2.991 3.977,-8.727 10.619,-9.387 0.013,0.255 0.015,0.424 0.015,0.474 0,0.284 0.22,0.52 0.503,0.539 0.283,0.02 0.533,-0.182 0.574,-0.462 0.002,-0.016 0.036,-0.241 0.11,-0.614 0.026,0 0.049,-0.004 0.075,-0.004 2.848,0 5.15,0.889 6.846,2.642 1.761,1.82 2.515,4.202 2.837,6.02 1.261,-3.193 4.104,-8.237 9.492,-8.624 0.081,0.362 0.121,0.579 0.123,0.595 0.048,0.267 0.298,0.477 0.556,0.448 0.272,-0.011 0.493,-0.223 0.516,-0.494 0.002,-0.015 0.02,-0.218 0.063,-0.561 1.813,0.124 3.342,0.811 4.547,2.055 1.881,1.946 2.574,4.823 2.827,6.862 1.215,-2.612 3.649,-6.745 7.359,-8.309 0.046,0.257 0.267,0.448 0.53,0.448 0.269,0 0.496,-0.198 0.535,-0.464 0.007,-0.043 0.027,-0.176 0.064,-0.373 0.611,-0.157 1.253,-0.245 1.925,-0.245 5.903,0 8.997,6.597 10.12,9.68 1.132,-2.849 4.064,-8.729 9.19,-9.57 -0.007,0.232 -0.017,0.377 -0.018,0.386 -0.024,0.29 0.187,0.549 0.478,0.582 0.289,0.043 0.554,-0.17 0.597,-0.46 0.008,-0.059 0.042,-0.278 0.111,-0.613 0.025,0 0.049,-0.005 0.075,-0.005 6.037,0 10.505,6.974 12.109,9.888 0.904,-2.775 3.617,-8.878 10.073,-9.768 0,0.235 -0.006,0.382 -0.007,0.39 -0.015,0.275 0.179,0.518 0.45,0.565 0.275,0.037 0.535,-0.122 0.61,-0.385 0.005,-0.017 0.078,-0.265 0.214,-0.67 0.118,-0.003 0.227,-0.02 0.348,-0.02 6.708,0 9.046,5.276 9.855,8.631 0.967,-3.118 3.164,-7.943 7.574,-8.562 0.041,0.315 0.059,0.504 0.06,0.518 0.023,0.271 0.244,0.482 0.515,0.494 0.289,0.034 0.511,-0.181 0.557,-0.448 0.003,-0.016 0.043,-0.24 0.129,-0.61 5.527,0.237 9.129,6.848 10.456,9.784 0.916,-2.469 3.272,-7.441 7.828,-9.184 0.029,0.187 0.149,0.34 0.322,0.411 -0.074,0.253 -0.148,0.505 -0.221,0.758 -4.37,1.911 -6.517,7.216 -7.14,9.056 -0.13,0.384 -0.202,0.634 -0.206,0.649 -0.062,0.228 -0.263,0.39 -0.499,0.401 -0.243,0.004 -0.451,-0.133 -0.532,-0.354 -0.006,-0.016 -0.106,-0.278 -0.277,-0.679 C 179.053,7.935 175.447,0.449 170,0.449 c -5.442,0 -7.52,7.615 -8.001,9.783 -0.077,0.347 -0.117,0.567 -0.119,0.582 -0.047,0.274 -0.297,0.484 -0.568,0.45 -0.278,-0.018 -0.497,-0.244 -0.507,-0.521 -0.001,-0.049 -0.01,-0.238 -0.037,-0.517 -0.198,-2.094 -1.448,-9.777 -9.157,-9.777 -7.66,0 -10.252,7.513 -10.857,9.762 -0.091,0.339 -0.14,0.565 -0.151,0.62 -0.047,0.229 -0.235,0.403 -0.466,0.43 -0.241,0.029 -0.455,-0.097 -0.555,-0.308 -0.007,-0.016 -0.144,-0.298 -0.373,-0.729 -1.255,-2.359 -5.655,-9.775 -11.395,-9.775 -5.731,0 -8.883,7.486 -9.71,9.765 -0.143,0.394 -0.225,0.651 -0.23,0.666 -0.069,0.232 -0.256,0.384 -0.526,0.385 -0.242,-0.004 -0.451,-0.168 -0.514,-0.401 -0.004,-0.015 -0.074,-0.262 -0.199,-0.642 -0.738,-2.249 -3.636,-9.773 -9.374,-9.773 -5.757,0 -9.166,7.538 -10.059,9.798 -0.152,0.384 -0.239,0.633 -0.244,0.649 -0.085,0.254 -0.336,0.407 -0.61,0.361 -0.264,-0.048 -0.453,-0.282 -0.444,-0.55 0,-0.01 0.004,-0.189 -0.003,-0.479 C 95.87,8.823 95.576,4.612 93.244,2.2 92.119,1.038 90.648,0.449 88.872,0.449 c -6.355,0 -9.09,7.562 -9.756,9.78 -0.11,0.367 -0.17,0.604 -0.173,0.619 -0.065,0.271 -0.329,0.445 -0.598,0.413 -0.276,-0.037 -0.479,-0.276 -0.47,-0.554 0,-0.009 0.005,-0.188 -0.007,-0.489 C 77.818,8.897 77.46,5.187 75.105,2.757 73.622,1.225 71.581,0.449 69.041,0.449 c -7.975,0 -10.61,7.525 -11.218,9.767 -0.092,0.337 -0.14,0.56 -0.151,0.615 -0.051,0.253 -0.272,0.434 -0.53,0.434 -0.258,0 -0.48,-0.181 -0.53,-0.434 C 56.6,10.776 56.553,10.553 56.463,10.218 55.861,7.977 53.271,0.449 45.604,0.449 c -7.68,0 -10.007,7.569 -10.523,9.778 -0.075,0.322 -0.112,0.533 -0.121,0.587 -0.046,0.264 -0.253,0.502 -0.543,0.451 -0.267,-0.004 -0.491,-0.204 -0.527,-0.469 -0.002,-0.014 -0.035,-0.23 -0.103,-0.571 -0.429,-2.152 -2.421,-9.776 -9.096,-9.776 -6.647,0 -10.198,7.49 -11.127,9.776 -0.161,0.397 -0.253,0.655 -0.258,0.671 -0.079,0.231 -0.279,0.38 -0.548,0.368 -0.244,-0.015 -0.447,-0.193 -0.496,-0.433 -0.011,-0.055 -0.059,-0.276 -0.148,-0.61 -0.6,-2.237 -3.189,-9.772 -10.859,-9.772 -0.599,0 -1.168,0.055 -1.716,0.143 -0.118,-0.348 -0.236,-0.694 -0.355,-1.04 0.229,-0.04 0.463,-0.073 0.7,-0.1 C -0.038,-0.214 -0.003,-0.015 0,0" /></g><g
       transform="matrix(2.4814625,0,0,1.8865993,118.46747,436.48332)"
       id="g178"><path
         id="path180"
         style="fill:#98daf8;fill-opacity:1;fill-rule:nonzero;stroke:none"
         d="m 0,0 c 1.06,-3.613 4.071,-10.463 11.597,-10.865 0.1,0.361 0.152,0.593 0.155,0.608 0.047,0.241 0.251,0.418 0.496,0.434 0.269,0.02 0.469,-0.137 0.548,-0.369 0.005,-0.015 0.096,-0.273 0.258,-0.67 7.132,0.432 9.654,6.711 10.514,10.416 1.11,-3.687 3.864,-9.978 9.709,-10.415 0.068,0.34 0.101,0.556 0.103,0.57 0.035,0.265 0.259,0.464 0.527,0.469 0.29,0.014 0.497,-0.188 0.543,-0.451 0.009,-0.054 0.046,-0.264 0.121,-0.586 5.9,0.454 8.283,6.904 9.159,10.575 1.173,-3.684 4.369,-10.215 12.216,-10.584 0.101,0.363 0.153,0.596 0.156,0.611 0.05,0.253 0.272,0.435 0.53,0.435 -9.366,0 -11.847,9.15 -12.341,11.581 C 44.227,2.071 44.195,2.278 44.187,2.335 44.148,2.603 43.928,2.82 43.644,2.798 43.371,2.794 43.145,2.589 43.114,2.319 43.112,2.306 43.093,2.155 43.054,1.908 42.72,-0.203 40.818,-9.822 33.916,-9.822 27.207,-9.822 24.689,-0.768 24.125,1.72 24.039,2.101 23.997,2.333 23.994,2.349 23.946,2.619 23.737,2.803 23.43,2.797 23.156,2.781 22.936,2.563 22.921,2.289 22.918,2.238 22.906,2.066 22.878,1.805 22.634,-0.471 21.093,-9.822 12.282,-9.822 3.594,-9.822 1.171,-0.771 0.669,1.719 0.601,2.055 0.567,2.276 0.559,2.335 0.521,2.598 0.297,2.794 0.031,2.798 H 0.023 C -0.24,2.798 -0.465,2.609 -0.51,2.349 -0.513,2.334 -0.548,2.136 -0.626,1.801 -0.93,0.488 -1.886,-2.934 -4.041,-5.728 -4.365,-6.605 -4.688,-7.473 -5.011,-8.329 -2.211,-5.896 -0.713,-2.29 0,0" /></g><g
       transform="matrix(2.4814625,0,0,1.8865993,585.16777,440.89757)"
       id="g182"><path
         id="path184"
         style="fill:#98daf8;fill-opacity:1;fill-rule:nonzero;stroke:none"
         d="m 0,0 c -0.006,-0.038 -0.018,-0.074 -0.016,-0.113 0.004,-0.067 0.336,-6.674 -2.867,-10.064 -1.246,-1.317 -2.89,-1.985 -4.885,-1.985 -7.345,0 -9.947,9.099 -10.516,11.561 -0.085,0.371 -0.126,0.595 -0.129,0.611 -0.046,0.267 -0.268,0.481 -0.556,0.447 -0.272,-0.011 -0.493,-0.222 -0.516,-0.493 -0.001,-0.015 -0.019,-0.204 -0.059,-0.519 -0.298,-2.312 -1.859,-11.607 -7.695,-11.607 -5.798,0 -9.228,9.008 -10.083,11.558 -0.136,0.406 -0.209,0.654 -0.214,0.671 -0.075,0.263 -0.335,0.422 -0.609,0.384 -0.272,-0.046 -0.466,-0.289 -0.45,-0.564 0,-0.009 0.006,-0.156 0.006,-0.391 10e-4,-1.353 -0.209,-6.016 -3.032,-9 -1.668,-1.764 -3.986,-2.658 -6.891,-2.658 -9.318,0 -11.822,9.057 -12.334,11.544 -0.069,0.334 -0.103,0.554 -0.111,0.613 -0.042,0.289 -0.308,0.503 -0.597,0.459 -0.29,-0.032 -0.502,-0.291 -0.477,-0.582 0,-0.009 0.01,-0.153 0.018,-0.385 0.043,-1.364 -0.017,-6.135 -2.755,-9.113 -1.546,-1.683 -3.72,-2.536 -6.46,-2.536 -9.325,0 -11.635,9.713 -12.021,11.783 -0.037,0.198 -0.057,0.33 -0.064,0.374 -0.039,0.266 -0.266,0.463 -0.535,0.463 -0.263,0 -0.484,-0.19 -0.53,-0.447 -0.001,-0.006 -0.005,-0.011 -0.006,-0.017 -0.017,-0.122 -1.804,-12.156 -7.756,-12.156 -5.177,0 -6.67,9.178 -6.97,11.565 -0.044,0.343 -0.062,0.546 -0.064,0.561 -0.023,0.271 -0.244,0.483 -0.516,0.493 -0.258,0.03 -0.508,-0.18 -0.556,-0.447 -0.002,-0.016 -0.041,-0.234 -0.123,-0.596 -0.548,-2.44 -3.053,-11.576 -9.8,-11.576 -6.712,0 -8.963,9.078 -9.45,11.543 -0.073,0.372 -0.108,0.598 -0.11,0.614 -0.041,0.28 -0.291,0.482 -0.574,0.461 -0.283,-0.019 -0.502,-0.254 -0.502,-0.538 -10e-4,-0.051 -0.003,-0.22 -0.016,-0.475 -0.121,-2.256 -1.189,-11.605 -10.622,-11.605 0.258,0 0.48,-0.181 0.53,-0.434 0.012,-0.055 0.06,-0.278 0.151,-0.614 7.41,0.347 9.854,6.226 10.651,10.003 1.091,-3.752 3.711,-9.638 9.394,-10.001 0.012,0.3 0.007,0.479 0.007,0.487 -0.008,0.278 0.194,0.518 0.47,0.554 0.269,0.034 0.534,-0.14 0.598,-0.412 0.003,-0.015 0.063,-0.251 0.173,-0.618 5.757,0.472 8.497,6.632 9.621,10.32 0.716,-3.708 2.597,-9.86 7.165,-10.322 0.006,0.29 0.002,0.469 0.002,0.478 -0.009,0.269 0.18,0.503 0.444,0.551 0.274,0.039 0.525,-0.107 0.61,-0.361 0.005,-0.016 0.093,-0.265 0.244,-0.648 4.567,0.644 6.73,7.005 7.591,10.601 1.138,-3.666 4.247,-10.226 11.843,-10.627 0.124,0.38 0.194,0.627 0.198,0.642 0.062,0.233 0.273,0.397 0.515,0.401 0.269,0.012 0.456,-0.153 0.526,-0.385 0.004,-0.016 0.086,-0.272 0.229,-0.666 2.708,0.149 4.9,1.102 6.513,2.859 1.845,2.009 2.59,4.669 2.879,6.786 1.382,-3.728 4.623,-9.214 11.713,-9.635 0.229,0.431 0.366,0.713 0.373,0.73 0.1,0.21 0.314,0.339 0.555,0.307 0.231,-0.027 0.419,-0.201 0.466,-0.43 0.011,-0.055 0.06,-0.281 0.151,-0.62 2.898,0.135 5.256,1.127 7,2.974 2.111,2.234 2.893,5.224 3.175,7.389 1.468,-3.671 4.708,-9.902 9.84,-10.347 0.026,0.277 0.035,0.466 0.037,0.515 0.009,0.278 0.228,0.503 0.505,0.522 0.296,0.025 0.522,-0.177 0.569,-0.451 0.002,-0.014 0.042,-0.234 0.119,-0.58 5.047,0.505 7.045,6.752 7.781,10.432 1.17,-3.657 4.078,-9.932 10.252,-10.433 0.171,0.401 0.271,0.663 0.277,0.678 0.081,0.223 0.289,0.389 0.532,0.354 0.236,-0.01 0.438,-0.172 0.499,-0.4 0.004,-0.015 0.076,-0.265 0.206,-0.649 1.98,0.15 3.643,0.918 4.944,2.295 1.968,2.084 2.728,5.138 3.013,7.48 C 1.306,-4.502 1.841,-5.722 2.545,-6.932 1.778,-4.51 1.037,-2.058 0.322,0.41 0.149,0.339 0.03,0.186 0,0" /></g><g
       transform="matrix(2.4814625,0,0,1.8865993,116.91432,395.66448)"
       id="g186"><path
         id="path188"
         style="fill:#98daf8;fill-opacity:1;fill-rule:nonzero;stroke:none"
         d="m 0,0 c 0.077,0.335 0.113,0.533 0.116,0.548 0.046,0.262 0.219,0.448 0.541,0.449 0.266,-0.004 0.49,-0.2 0.528,-0.463 0.008,-0.059 0.042,-0.28 0.11,-0.616 0.026,0 0.05,-0.002 0.076,-0.002 7.466,0 10.574,6.593 11.621,9.686 1.265,-2.857 4.588,-8.817 10.512,-9.598 0.028,0.261 0.04,0.433 0.043,0.484 0.015,0.274 0.235,0.492 0.509,0.508 0.307,0.006 0.516,-0.178 0.564,-0.448 0.002,-0.016 0.044,-0.248 0.131,-0.629 0.019,0 0.037,-0.003 0.056,-0.003 6.271,0 8.837,5.852 9.782,9.129 0.996,-2.933 3.503,-7.936 9.091,-8.938 0.039,0.247 0.058,0.398 0.06,0.411 0.031,0.27 0.257,0.475 0.53,0.479 0.284,0 0.504,-0.195 0.543,-0.463 0.008,-0.057 0.04,-0.264 0.104,-0.576 0.265,-0.018 0.526,-0.042 0.803,-0.042 7.286,0 10.421,6.277 11.541,9.455 1.071,-2.993 3.977,-8.728 10.618,-9.389 0.014,0.255 0.016,0.424 0.016,0.474 0,0.285 0.22,0.52 0.503,0.539 0.283,0.024 0.532,-0.182 0.574,-0.461 0.002,-0.016 0.036,-0.242 0.11,-0.615 0.025,0 0.049,-0.003 0.074,-0.003 2.847,0 5.151,0.888 6.847,2.642 1.761,1.82 2.515,4.202 2.837,6.02 1.261,-3.193 4.104,-8.237 9.492,-8.625 0.081,0.362 0.12,0.579 0.123,0.595 0.047,0.268 0.298,0.441 0.555,0.449 0.273,-0.011 0.494,-0.224 0.517,-0.494 0.001,-0.015 0.02,-0.219 0.063,-0.562 1.813,0.125 3.342,0.811 4.546,2.056 1.882,1.945 2.575,4.823 2.828,6.862 1.215,-2.612 3.649,-6.745 7.359,-8.309 0.045,0.258 0.266,0.447 0.529,0.447 0.27,0 0.497,-0.197 0.536,-0.463 0.006,-0.044 0.027,-0.176 0.064,-0.374 0.611,-0.157 1.252,-0.244 1.925,-0.244 5.903,0 8.997,6.597 10.12,9.68 1.131,-2.85 4.064,-8.729 9.19,-9.57 -0.007,0.231 -0.017,0.376 -0.018,0.385 -0.024,0.292 0.187,0.549 0.478,0.582 0.289,0.042 0.554,-0.17 0.596,-0.459 0.009,-0.059 0.043,-0.279 0.112,-0.613 0.025,0 0.049,-0.005 0.074,-0.005 6.037,0 10.506,6.974 12.109,9.888 0.905,-2.775 3.618,-8.878 10.074,-9.769 0,0.235 -0.006,0.382 -0.007,0.391 -0.016,0.275 0.179,0.517 0.45,0.564 0.275,0.038 0.535,-0.12 0.61,-0.385 0.004,-0.016 0.078,-0.264 0.214,-0.67 0.118,-0.003 0.227,-0.019 0.348,-0.019 6.708,0 9.045,5.276 9.854,8.63 0.968,-3.116 3.164,-7.942 7.575,-8.562 0.041,0.315 0.058,0.504 0.06,0.519 0.023,0.27 0.244,0.482 0.515,0.493 0.289,0.036 0.51,-0.18 0.557,-0.448 0.002,-0.016 0.043,-0.24 0.129,-0.61 5.527,0.238 9.129,6.848 10.455,9.786 0.916,-2.47 3.273,-7.443 7.829,-9.185 0.037,0.235 0.217,0.427 0.463,0.454 0.28,0.042 0.546,-0.162 0.594,-0.445 0.002,-0.012 0.026,-0.141 0.074,-0.358 0.712,-0.173 1.468,-0.274 2.278,-0.274 1.936,0 3.481,0.557 4.717,1.421 -0.142,0.353 -0.286,0.703 -0.427,1.06 -1.115,-0.84 -2.511,-1.4 -4.29,-1.4 -6.644,0 -9.685,7.511 -10.449,9.767 -0.13,0.384 -0.201,0.634 -0.205,0.649 -0.062,0.228 -0.263,0.39 -0.499,0.4 -0.243,0.035 -0.451,-0.131 -0.533,-0.354 -0.005,-0.015 -0.105,-0.277 -0.276,-0.678 -0.978,-2.296 -4.585,-9.784 -10.032,-9.784 -5.443,0 -7.521,7.618 -8.001,9.785 -0.077,0.346 -0.117,0.566 -0.119,0.58 -0.047,0.274 -0.273,0.476 -0.57,0.451 -0.277,-0.019 -0.495,-0.244 -0.505,-0.522 -0.001,-0.049 -0.01,-0.238 -0.036,-0.515 -0.194,-2.093 -1.433,-9.779 -9.158,-9.779 -7.661,0 -10.253,7.515 -10.858,9.763 -0.091,0.339 -0.139,0.565 -0.15,0.62 -0.047,0.229 -0.235,0.403 -0.466,0.43 -0.241,0.032 -0.456,-0.097 -0.555,-0.307 -0.007,-0.017 -0.144,-0.299 -0.373,-0.73 -1.255,-2.359 -5.655,-9.776 -11.396,-9.776 -5.731,0 -8.882,7.488 -9.709,9.766 -0.143,0.394 -0.225,0.651 -0.23,0.666 -0.069,0.232 -0.257,0.397 -0.526,0.385 -0.242,-0.004 -0.452,-0.168 -0.514,-0.401 -0.004,-0.015 -0.074,-0.262 -0.199,-0.642 -0.736,-2.248 -3.628,-9.774 -9.374,-9.774 -5.757,0 -9.167,7.54 -10.059,9.8 -0.152,0.383 -0.239,0.632 -0.244,0.648 -0.085,0.254 -0.336,0.4 -0.61,0.361 C 96.2,11.758 96.011,11.524 96.019,11.255 96.02,11.246 96.023,11.067 96.017,10.777 95.986,9.373 95.692,5.161 93.358,2.749 92.234,1.587 90.764,0.997 88.988,0.997 c -6.355,0 -9.09,7.563 -9.756,9.782 -0.11,0.367 -0.17,0.603 -0.173,0.618 -0.065,0.272 -0.329,0.446 -0.598,0.412 -0.276,-0.036 -0.479,-0.276 -0.47,-0.554 0,-0.008 0.004,-0.187 -0.007,-0.487 C 77.933,9.447 77.576,5.736 75.221,3.305 73.738,1.774 71.697,0.997 69.156,0.997 c -7.975,0 -10.61,7.527 -11.218,9.769 -0.091,0.336 -0.139,0.559 -0.15,0.614 -0.051,0.253 -0.273,0.434 -0.53,0.434 -0.258,0 -0.48,-0.181 -0.531,-0.435 C 56.724,11.365 56.672,11.131 56.571,10.768 55.957,8.561 53.302,0.997 45.72,0.997 c -7.68,0 -10.008,7.571 -10.523,9.78 -0.075,0.322 -0.113,0.532 -0.122,0.586 -0.045,0.263 -0.252,0.465 -0.542,0.451 -0.268,-0.005 -0.492,-0.204 -0.528,-0.469 -0.001,-0.014 -0.034,-0.23 -0.102,-0.57 -0.43,-2.153 -2.422,-9.778 -9.096,-9.778 -6.648,0 -10.199,7.492 -11.127,9.777 -0.162,0.397 -0.254,0.655 -0.259,0.671 -0.078,0.231 -0.278,0.388 -0.547,0.368 C 12.629,11.797 12.425,11.62 12.378,11.379 12.375,11.365 12.323,11.132 12.223,10.771 11.61,8.568 8.956,0.997 1.371,0.997 -2.66,0.997 -5.511,3.139 -7.437,5.48 -7.591,5.098 -7.743,4.723 -7.896,4.347 -6.053,2.254 -3.472,0.396 0,0" /></g><g
       transform="matrix(2.4814625,0,0,1.8865993,87.714464,372.42345)"
       id="g190"><path
         id="path192"
         style="fill:#98daf8;fill-opacity:1;fill-rule:nonzero;stroke:none"
         d="M 0,0 C -0.087,0.286 0.076,0.587 0.362,0.673 0.646,0.761 0.95,0.597 1.035,0.311 1.04,0.296 1.121,0.045 1.269,-0.34 8.234,0.127 11.276,6.931 12.393,10.518 13.453,6.905 16.464,0.055 23.99,-0.347 c 0.1,0.361 0.152,0.593 0.155,0.608 0.048,0.241 0.251,0.418 0.496,0.434 0.269,0.017 0.469,-0.137 0.548,-0.369 0.005,-0.015 0.097,-0.273 0.258,-0.67 7.132,0.432 9.654,6.711 10.514,10.416 1.11,-3.687 3.864,-9.978 9.709,-10.415 0.068,0.34 0.101,0.556 0.103,0.57 0.036,0.265 0.259,0.464 0.527,0.469 0.29,0.021 0.497,-0.188 0.543,-0.451 0.009,-0.054 0.046,-0.264 0.121,-0.586 5.9,0.454 8.283,6.904 9.159,10.575 1.173,-3.684 4.369,-10.215 12.216,-10.584 0.101,0.363 0.153,0.596 0.156,0.611 0.05,0.254 0.272,0.435 0.53,0.435 -9.366,0 -11.847,9.15 -12.341,11.581 -0.064,0.312 -0.096,0.519 -0.104,0.576 -0.039,0.268 -0.259,0.463 -0.543,0.463 -0.273,-0.004 -0.499,-0.209 -0.53,-0.479 -0.002,-0.013 -0.021,-0.164 -0.06,-0.411 -0.334,-2.111 -2.236,-11.73 -9.138,-11.73 -6.709,0 -9.227,9.054 -9.791,11.542 -0.086,0.381 -0.128,0.613 -0.131,0.629 -0.048,0.27 -0.257,0.454 -0.564,0.448 C 35.549,13.299 35.329,13.081 35.314,12.807 35.311,12.756 35.299,12.584 35.271,12.323 35.027,10.047 33.486,0.696 24.675,0.696 c -8.688,0 -11.111,9.051 -11.613,11.541 -0.068,0.336 -0.102,0.557 -0.11,0.616 -0.038,0.263 -0.262,0.459 -0.528,0.463 C 12.103,13.315 11.929,13.129 11.883,12.867 11.88,12.852 11.845,12.654 11.767,12.319 11.218,9.948 8.557,0.696 0.518,0.696 -0.691,0.696 -1.787,0.909 -2.785,1.273 -2.939,0.937 -3.091,0.609 -3.24,0.287 -2.22,-0.094 -1.101,-0.328 0.126,-0.37 0.046,-0.147 0.003,-0.012 0,0" /></g><g
       transform="matrix(2.4814625,0,0,1.8865993,587.97456,396.02293)"
       id="g194"><path
         id="path196"
         style="fill:#98daf8;fill-opacity:1;fill-rule:nonzero;stroke:none"
         d="M 0,0 C -0.048,0.217 -0.071,0.346 -0.073,0.358 -0.122,0.641 -0.388,0.845 -0.668,0.803 -0.914,0.776 -1.094,0.584 -1.131,0.349 -1.137,0.311 -1.149,0.275 -1.147,0.236 c 0.004,-0.067 0.336,-6.674 -2.868,-10.064 -1.245,-1.317 -2.889,-1.985 -4.884,-1.985 -7.345,0 -9.947,9.099 -10.516,11.561 -0.086,0.37 -0.126,0.594 -0.129,0.61 -0.046,0.268 -0.268,0.484 -0.557,0.448 -0.271,-0.011 -0.492,-0.223 -0.515,-0.493 -0.001,-0.015 -0.019,-0.204 -0.06,-0.519 -0.297,-2.312 -1.858,-11.607 -7.694,-11.607 -5.798,0 -9.228,9.008 -10.083,11.558 -0.136,0.406 -0.209,0.654 -0.214,0.67 -0.075,0.265 -0.335,0.423 -0.609,0.385 -0.272,-0.047 -0.466,-0.29 -0.451,-0.564 10e-4,-0.009 0.007,-0.156 0.007,-0.391 10e-4,-1.353 -0.209,-6.016 -3.032,-9 -1.668,-1.764 -3.986,-2.658 -6.891,-2.658 -9.318,0 -11.822,9.057 -12.334,11.544 -0.069,0.334 -0.103,0.554 -0.111,0.613 -0.042,0.289 -0.308,0.501 -0.597,0.459 -0.291,-0.033 -0.502,-0.29 -0.478,-0.582 10e-4,-0.009 0.011,-0.154 0.018,-0.385 0.044,-1.364 -0.016,-6.135 -2.755,-9.114 -1.545,-1.682 -3.719,-2.535 -6.459,-2.535 -9.325,0 -11.635,9.713 -12.021,11.783 -0.037,0.198 -0.057,0.33 -0.064,0.374 -0.039,0.266 -0.266,0.463 -0.535,0.463 -0.263,0 -0.484,-0.189 -0.53,-0.447 -0.001,-0.006 -0.005,-0.011 -0.006,-0.018 -0.017,-0.121 -1.804,-12.155 -7.757,-12.155 -5.176,0 -6.669,9.177 -6.97,11.564 -0.043,0.343 -0.061,0.547 -0.063,0.562 -0.023,0.27 -0.244,0.483 -0.516,0.494 -0.258,-0.008 -0.508,-0.181 -0.556,-0.449 -0.002,-0.016 -0.042,-0.233 -0.123,-0.595 -0.548,-2.44 -3.053,-11.576 -9.8,-11.576 -6.712,0 -8.963,9.078 -9.45,11.542 -0.074,0.373 -0.108,0.599 -0.11,0.615 -0.041,0.279 -0.291,0.485 -0.574,0.461 -0.283,-0.019 -0.503,-0.254 -0.503,-0.539 0,-0.05 -0.002,-0.219 -0.015,-0.474 -0.121,-2.257 -1.189,-11.605 -10.622,-11.605 0.258,0 0.48,-0.182 0.53,-0.434 0.011,-0.055 0.06,-0.279 0.151,-0.614 7.409,0.347 9.854,6.226 10.65,10.003 1.091,-3.752 3.712,-9.638 9.395,-10.002 0.012,0.301 0.007,0.479 0.007,0.488 -0.009,0.278 0.194,0.518 0.47,0.554 0.269,0.035 0.533,-0.141 0.598,-0.412 0.003,-0.015 0.063,-0.252 0.173,-0.619 5.757,0.473 8.497,6.633 9.621,10.32 0.716,-3.707 2.597,-9.859 7.164,-10.321 0.007,0.29 0.003,0.469 0.003,0.478 -0.009,0.269 0.18,0.503 0.444,0.551 0.274,0.042 0.525,-0.107 0.61,-0.362 0.005,-0.015 0.092,-0.264 0.244,-0.647 4.567,0.644 6.73,7.005 7.591,10.6 1.138,-3.665 4.247,-10.226 11.842,-10.626 0.125,0.38 0.195,0.627 0.199,0.642 0.062,0.233 0.273,0.397 0.514,0.401 0.27,-0.016 0.457,-0.153 0.527,-0.385 0.004,-0.016 0.086,-0.272 0.229,-0.666 2.708,0.149 4.9,1.101 6.513,2.859 1.845,2.009 2.59,4.669 2.879,6.786 1.382,-3.728 4.623,-9.214 11.713,-9.635 0.229,0.431 0.366,0.713 0.373,0.729 0.1,0.211 0.314,0.345 0.555,0.308 0.231,-0.027 0.419,-0.201 0.466,-0.43 0.011,-0.056 0.06,-0.281 0.151,-0.62 2.898,0.135 5.256,1.127 7,2.974 2.111,2.234 2.893,5.224 3.175,7.389 1.468,-3.671 4.708,-9.902 9.84,-10.347 0.026,0.277 0.035,0.466 0.037,0.515 0.009,0.278 0.228,0.503 0.504,0.522 0.297,0.03 0.523,-0.177 0.57,-0.451 0.002,-0.014 0.042,-0.234 0.119,-0.58 5.047,0.505 7.045,6.752 7.781,10.431 1.17,-3.656 4.078,-9.931 10.252,-10.432 0.171,0.401 0.271,0.663 0.277,0.678 0.081,0.223 0.289,0.389 0.532,0.354 0.236,-0.01 0.437,-0.172 0.499,-0.4 0.004,-0.015 0.076,-0.265 0.206,-0.649 1.98,0.15 3.643,0.917 4.943,2.295 1.969,2.084 2.729,5.138 3.014,7.479 1.367,-3.754 4.496,-9.431 10.905,-9.773 0.042,0.326 0.059,0.53 0.06,0.544 0.02,0.299 0.282,0.532 0.576,0.504 0.298,-0.02 0.524,-0.278 0.504,-0.576 -0.001,-0.013 -0.015,-0.19 -0.052,-0.484 0.593,0.026 1.16,0.098 1.7,0.216 -0.183,0.326 -0.365,0.653 -0.546,0.986 -0.52,-0.094 -1.068,-0.141 -1.642,-0.141 C 3.027,-11.813 0.441,-2.007 0,0" /></g><g
       transform="matrix(2.4814625,0,0,1.8865993,617.20642,371.73504)"
       id="g198"><path
         id="path200"
         style="fill:#98daf8;fill-opacity:1;fill-rule:nonzero;stroke:none"
         d="M 0,0 C 0.037,0.294 0.051,0.471 0.052,0.484 0.072,0.782 -0.154,1.04 -0.452,1.06 -0.746,1.087 -1.008,0.855 -1.028,0.556 -1.029,0.542 -1.046,0.338 -1.088,0.012 c -0.278,-2.115 -1.744,-9.768 -8.414,-9.768 -6.644,0 -9.685,7.511 -10.448,9.767 -0.131,0.384 -0.202,0.634 -0.206,0.649 -0.062,0.228 -0.263,0.389 -0.499,0.4 -0.243,0.035 -0.451,-0.131 -0.532,-0.354 -0.006,-0.015 -0.106,-0.277 -0.277,-0.678 -0.978,-2.296 -4.585,-9.784 -10.032,-9.784 -5.443,0 -7.521,7.618 -8.001,9.785 -0.077,0.346 -0.117,0.566 -0.119,0.58 -0.047,0.274 -0.273,0.481 -0.57,0.451 -0.277,-0.019 -0.495,-0.244 -0.505,-0.522 -10e-4,-0.049 -0.01,-0.238 -0.036,-0.515 -0.194,-2.093 -1.433,-9.779 -9.158,-9.779 -7.661,0 -10.253,7.514 -10.857,9.763 -0.091,0.339 -0.14,0.564 -0.151,0.62 -0.047,0.229 -0.235,0.402 -0.466,0.43 -0.241,0.037 -0.455,-0.097 -0.555,-0.308 -0.007,-0.016 -0.144,-0.298 -0.373,-0.729 -1.255,-2.359 -5.655,-9.776 -11.395,-9.776 -5.732,0 -8.883,7.488 -9.71,9.766 -0.143,0.394 -0.225,0.65 -0.23,0.665 -0.069,0.233 -0.256,0.37 -0.526,0.386 -0.242,-0.004 -0.452,-0.168 -0.514,-0.401 -0.004,-0.016 -0.074,-0.262 -0.199,-0.642 -0.736,-2.248 -3.628,-9.774 -9.374,-9.774 -5.757,0 -9.167,7.54 -10.059,9.8 -0.152,0.383 -0.239,0.632 -0.244,0.647 -0.085,0.255 -0.336,0.404 -0.61,0.362 -0.264,-0.048 -0.453,-0.282 -0.445,-0.551 0.001,-0.009 0.005,-0.189 -0.002,-0.478 -0.031,-1.404 -0.325,-5.616 -2.659,-8.029 -1.123,-1.162 -2.594,-1.751 -4.37,-1.751 -6.355,0 -9.09,7.563 -9.756,9.781 -0.11,0.367 -0.17,0.604 -0.173,0.619 -0.065,0.271 -0.329,0.447 -0.598,0.412 -0.276,-0.036 -0.479,-0.276 -0.47,-0.554 0,-0.009 0.004,-0.187 -0.007,-0.488 -0.05,-1.32 -0.407,-5.031 -2.763,-7.462 -1.483,-1.531 -3.524,-2.308 -6.064,-2.308 -7.976,0 -10.611,7.527 -11.219,9.769 -0.091,0.335 -0.139,0.559 -0.15,0.614 -0.051,0.252 -0.272,0.434 -0.53,0.434 -0.258,0 -0.48,-0.182 -0.53,-0.435 -0.003,-0.015 -0.055,-0.248 -0.156,-0.611 -0.614,-2.207 -3.27,-9.771 -10.852,-9.771 -7.68,0 -10.007,7.571 -10.523,9.779 -0.075,0.322 -0.112,0.533 -0.121,0.587 -0.046,0.263 -0.253,0.472 -0.543,0.451 -0.268,-0.005 -0.492,-0.204 -0.527,-0.469 -0.002,-0.014 -0.035,-0.23 -0.103,-0.57 -0.429,-2.153 -2.421,-9.778 -9.096,-9.778 -6.648,0 -10.199,7.492 -11.127,9.777 -0.162,0.396 -0.253,0.655 -0.258,0.67 -0.079,0.232 -0.279,0.386 -0.548,0.369 -0.245,-0.016 -0.449,-0.193 -0.496,-0.434 -0.003,-0.015 -0.055,-0.247 -0.155,-0.608 -0.613,-2.203 -3.267,-9.774 -10.852,-9.774 -7.566,0 -11.005,7.52 -11.869,9.78 -0.148,0.386 -0.229,0.637 -0.234,0.651 -0.085,0.287 -0.389,0.45 -0.673,0.363 -0.286,-0.086 -0.449,-0.387 -0.362,-0.673 0.003,-0.012 0.046,-0.147 0.126,-0.37 0.652,-1.823 3.962,-9.873 11.641,-10.748 0.078,0.334 0.113,0.533 0.116,0.548 0.045,0.26 0.27,0.449 0.533,0.449 h 0.008 c 0.266,-0.004 0.49,-0.201 0.528,-0.464 0.008,-0.059 0.042,-0.279 0.11,-0.615 0.026,0 0.05,-0.003 0.076,-0.003 7.466,0 10.574,6.594 11.621,9.687 1.265,-2.857 4.588,-8.818 10.512,-9.598 0.028,0.26 0.04,0.433 0.043,0.484 0.015,0.273 0.235,0.492 0.509,0.508 0.307,0.004 0.516,-0.178 0.564,-0.448 0.003,-0.016 0.045,-0.248 0.131,-0.629 0.019,0 0.037,-0.004 0.056,-0.004 6.271,0 8.837,5.852 9.782,9.129 0.996,-2.932 3.504,-7.935 9.091,-8.938 0.039,0.248 0.058,0.399 0.06,0.411 0.031,0.271 0.257,0.476 0.53,0.48 0.284,-0.022 0.504,-0.195 0.543,-0.464 0.008,-0.056 0.04,-0.263 0.104,-0.576 0.265,-0.017 0.526,-0.042 0.803,-0.042 7.286,0 10.421,6.277 11.541,9.456 1.071,-2.993 3.978,-8.729 10.619,-9.389 0.013,0.255 0.015,0.424 0.015,0.474 0,0.284 0.22,0.519 0.503,0.54 0.283,0.005 0.532,-0.183 0.574,-0.463 0.002,-0.016 0.036,-0.241 0.11,-0.614 0.026,0 0.049,-0.004 0.075,-0.004 2.846,0 5.15,0.889 6.846,2.642 1.761,1.82 2.515,4.202 2.837,6.02 1.261,-3.192 4.104,-8.237 9.492,-8.624 0.081,0.362 0.12,0.579 0.123,0.595 0.047,0.267 0.259,0.482 0.557,0.448 0.271,-0.011 0.492,-0.223 0.515,-0.493 10e-4,-0.016 0.02,-0.219 0.063,-0.562 1.813,0.124 3.342,0.811 4.546,2.055 1.882,1.946 2.575,4.824 2.828,6.862 1.215,-2.611 3.649,-6.744 7.359,-8.308 0.046,0.257 0.266,0.447 0.53,0.447 0.268,0 0.496,-0.197 0.535,-0.464 0.007,-0.043 0.027,-0.175 0.064,-0.373 0.611,-0.157 1.252,-0.245 1.925,-0.245 5.903,0 8.997,6.597 10.12,9.681 1.131,-2.85 4.064,-8.73 9.191,-9.571 -0.008,0.232 -0.018,0.376 -0.019,0.385 -0.025,0.291 0.186,0.55 0.478,0.583 0.275,0.041 0.554,-0.17 0.597,-0.46 0.008,-0.059 0.042,-0.278 0.111,-0.612 0.025,-10e-4 0.049,-0.006 0.075,-0.006 6.037,0 10.505,6.974 12.108,9.889 0.905,-2.775 3.618,-8.879 10.074,-9.769 0,0.235 -0.006,0.382 -0.007,0.391 -0.015,0.274 0.178,0.517 0.449,0.564 0.276,0.046 0.536,-0.122 0.611,-0.385 0.005,-0.017 0.078,-0.265 0.214,-0.67 0.118,-0.003 0.227,-0.02 0.348,-0.02 6.708,0 9.045,5.277 9.855,8.631 0.967,-3.117 3.163,-7.942 7.574,-8.562 0.041,0.315 0.058,0.504 0.06,0.519 0.023,0.27 0.244,0.481 0.515,0.493 0.289,0.038 0.51,-0.181 0.557,-0.448 0.003,-0.016 0.043,-0.24 0.129,-0.61 5.527,0.237 9.129,6.848 10.456,9.786 0.916,-2.47 3.272,-7.443 7.827,-9.185 0.037,0.235 0.218,0.427 0.464,0.455 0.28,0.03 0.546,-0.163 0.595,-0.446 0.002,-0.012 0.025,-0.141 0.073,-0.358 0.231,-0.056 0.471,-0.097 0.712,-0.136 1.607,0.131 3.126,0.256 4.554,0.376 C -1.415,-8.43 -0.233,-1.843 0,0" /></g><g
       transform="matrix(2.4814625,0,0,1.8865993,492.0241,352.5902)"
       id="g202"><path
         id="path204"
         style="fill:#98daf8;fill-opacity:1;fill-rule:nonzero;stroke:none"
         d="M 0,0 C -0.075,0.263 -0.335,0.431 -0.611,0.385 -0.882,0.338 -1.075,0.095 -1.06,-0.18 c 0.001,-0.008 0.007,-0.155 0.007,-0.39 10e-4,-0.537 -0.033,-1.589 -0.249,-2.859 0.372,0.023 0.743,0.045 1.113,0.067 0.023,0.148 0.05,0.301 0.069,0.442 0.054,-0.136 0.117,-0.283 0.176,-0.427 0.387,0.024 0.774,0.048 1.159,0.071 C 0.745,-2.188 0.411,-1.259 0.214,-0.67 0.078,-0.265 0.005,-0.017 0,0" /></g><g
       transform="matrix(2.4814625,0,0,1.8865993,119.85411,352.45456)"
       id="g206"><path
         id="path208"
         style="fill:#98daf8;fill-opacity:1;fill-rule:nonzero;stroke:none"
         d="M 0,0 C -0.038,0.263 -0.262,0.46 -0.528,0.464 H -0.536 C -0.799,0.464 -1.024,0.275 -1.069,0.015 -1.072,0 -1.107,-0.199 -1.185,-0.534 c -0.108,-0.467 -0.301,-1.204 -0.598,-2.082 0.359,-0.05 0.721,-0.099 1.083,-0.148 0.048,0.144 0.099,0.294 0.141,0.43 0.044,-0.149 0.096,-0.311 0.146,-0.469 0.382,-0.051 0.765,-0.102 1.151,-0.152 C 0.413,-1.977 0.217,-1.147 0.11,-0.615 0.042,-0.279 0.008,-0.059 0,0" /></g><g
       transform="matrix(2.4814625,0,0,1.8865993,539.4771,352.48248)"
       id="g210"><path
         id="path212"
         style="fill:#98daf8;fill-opacity:1;fill-rule:nonzero;stroke:none"
         d="m 0,0 c -0.047,0.267 -0.268,0.486 -0.557,0.448 -0.271,-0.012 -0.492,-0.223 -0.515,-0.493 -0.002,-0.015 -0.019,-0.204 -0.06,-0.519 -0.047,-0.367 -0.127,-0.911 -0.25,-1.566 0.632,0.045 1.258,0.089 1.879,0.133 -0.168,0.565 -0.288,1.04 -0.368,1.386 C 0.043,-0.24 0.003,-0.016 0,0" /></g><g
       transform="matrix(2.4814625,0,0,1.8865993,587.79266,352.48248)"
       id="g214"><path
         id="path216"
         style="fill:#98daf8;fill-opacity:1;fill-rule:nonzero;stroke:none"
         d="m 0,0 c -0.049,0.283 -0.315,0.475 -0.595,0.446 -0.246,-0.028 -0.426,-0.22 -0.463,-0.455 -0.006,-0.038 -0.018,-0.074 -0.015,-0.113 0,-0.011 0.009,-0.208 0.01,-0.521 0.398,0.032 0.791,0.063 1.179,0.095 -0.016,0.07 -0.03,0.132 -0.043,0.19 C 0.025,-0.141 0.002,-0.012 0,0" /></g><g
       transform="matrix(2.4814625,0,0,1.8865993,433.90476,352.45456)"
       id="g218"><path
         id="path220"
         style="fill:#98daf8;fill-opacity:1;fill-rule:nonzero;stroke:none"
         d="M 0,0 C -0.042,0.289 -0.321,0.501 -0.597,0.46 -0.888,0.427 -1.1,0.168 -1.074,-0.123 c 0,-0.009 0.011,-0.154 0.018,-0.385 0.023,-0.703 0.014,-2.31 -0.373,-4.118 0.376,0.017 0.75,0.036 1.125,0.053 0.068,0.346 0.128,0.686 0.172,1.01 0.117,-0.315 0.252,-0.646 0.397,-0.982 0.368,0.018 0.736,0.035 1.104,0.053 C 0.642,-2.867 0.275,-1.406 0.111,-0.613 0.043,-0.278 0.009,-0.059 0,0" /></g><g
       transform="matrix(2.4814625,0,0,1.8865993,378.43069,352.45456)"
       id="g222"><path
         id="path224"
         style="fill:#98daf8;fill-opacity:1;fill-rule:nonzero;stroke:none"
         d="m 0,0 c -0.039,0.266 -0.267,0.464 -0.536,0.464 -0.263,0 -0.484,-0.19 -0.529,-0.448 -0.001,-0.006 -0.005,-0.011 -0.006,-0.017 -0.008,-0.057 -0.407,-2.732 -1.44,-5.558 0.39,0.013 0.779,0.026 1.169,0.039 0.371,1.063 0.656,2.086 0.862,2.947 0.262,-0.842 0.635,-1.841 1.134,-2.881 0.376,0.013 0.751,0.026 1.126,0.039 C 0.683,-3.25 0.218,-1.202 0.064,-0.373 0.027,-0.176 0.006,-0.043 0,0" /></g><g
       transform="matrix(2.4814625,0,0,1.8865993,178.00719,352.48248)"
       id="g226"><path
         id="path228"
         style="fill:#98daf8;fill-opacity:1;fill-rule:nonzero;stroke:none"
         d="M 0,0 C -0.048,0.269 -0.257,0.452 -0.564,0.448 -0.838,0.432 -1.057,0.213 -1.073,-0.06 c -0.003,-0.051 -0.015,-0.224 -0.043,-0.484 -0.087,-0.811 -0.341,-2.517 -1.027,-4.382 0.357,-0.024 0.713,-0.048 1.072,-0.071 0.278,0.784 0.491,1.537 0.645,2.203 C -0.218,-3.485 0.05,-4.269 0.382,-5.089 0.793,-5.114 1.204,-5.138 1.617,-5.163 0.796,-3.284 0.335,-1.529 0.131,-0.629 0.045,-0.248 0.003,-0.016 0,0" /></g><g
       transform="matrix(2.4814625,0,0,1.8865993,228.1156,352.45456)"
       id="g230"><path
         id="path232"
         style="fill:#98daf8;fill-opacity:1;fill-rule:nonzero;stroke:none"
         d="m 0,0 c -0.039,0.268 -0.259,0.442 -0.543,0.464 -0.273,-0.004 -0.499,-0.209 -0.53,-0.48 -0.002,-0.013 -0.021,-0.163 -0.06,-0.411 -0.141,-0.894 -0.566,-3.13 -1.531,-5.418 0.396,-0.012 0.792,-0.025 1.19,-0.036 0.463,1.173 0.79,2.312 1.017,3.262 C -0.15,-3.585 0.299,-4.748 0.93,-5.945 1.326,-5.955 1.723,-5.964 2.12,-5.973 0.865,-3.771 0.31,-1.59 0.104,-0.576 0.04,-0.264 0.008,-0.056 0,0" /></g><g
       transform="matrix(2.4814625,0,0,1.8865993,288.0645,352.45456)"
       id="g234"><path
         id="path236"
         style="fill:#98daf8;fill-opacity:1;fill-rule:nonzero;stroke:none"
         d="m 0,0 c -0.041,0.28 -0.291,0.468 -0.574,0.463 -0.283,-0.021 -0.502,-0.256 -0.502,-0.54 0,-0.05 -0.002,-0.219 -0.016,-0.474 -0.051,-0.985 -0.282,-3.315 -1.31,-5.635 0.37,0 0.74,0.001 1.111,0.002 0.426,1.045 0.717,2.075 0.909,2.982 0.262,-0.903 0.618,-1.932 1.078,-2.977 0.406,0.002 0.811,0.004 1.217,0.006 C 0.849,-3.927 0.318,-1.668 0.11,-0.614 0.037,-0.241 0.002,-0.016 0,0" /></g><g
       transform="matrix(2.4814625,0,0,1.8865993,339.07196,352.39683)"
       id="g238"><path
         id="path240"
         style="fill:#98daf8;fill-opacity:1;fill-rule:nonzero;stroke:none"
         d="M 0,0 C -0.023,0.27 -0.244,0.483 -0.515,0.493 -0.813,0.527 -1.025,0.313 -1.072,0.045 -1.075,0.03 -1.114,-0.188 -1.195,-0.55 c -0.23,-1.018 -0.802,-3.2 -1.88,-5.401 0.414,0.008 0.827,0.016 1.24,0.025 0.5,1.098 0.882,2.168 1.161,3.084 0.175,-0.906 0.423,-1.962 0.759,-3.044 0.379,0.009 0.757,0.017 1.136,0.025 -0.705,2.175 -1.034,4.315 -1.158,5.3 C 0.02,-0.219 0.001,-0.015 0,0" /></g><g
       transform="matrix(2.4814625,0,0,1.8865993,453.41403,630.84379)"
       id="g242"><path
         id="path244"
         style="fill:#e6e7e8;fill-opacity:1;fill-rule:nonzero;stroke:none"
         d="m 0,0 c 0,0 -3.646,26.502 16.212,30.288 0,0 -4.625,12.439 6.265,14.062 10.89,1.622 9.735,-4.327 9.735,-4.327 0,0 -0.34,22.175 17.444,21.093 17.784,-1.082 16.74,-12.44 16.74,-12.44 0,0 -1.08,9.195 7.013,9.195 8.093,0 8.634,-4.327 8.634,-4.327 0,0 4.868,7.61 14.603,7.61 9.735,0 11.899,-7.61 11.899,-7.61 0,0 12.439,1.082 14.062,-11.899 1.622,-12.98 -17.307,-11.068 -17.307,-11.068 0,0 0.54,-15.974 -15.144,-15.974 -15.685,0 -17.293,7.572 -17.293,7.572 0,0 0.363,-10.276 -7.668,-10.276 -8.031,0 -13.436,5.949 -13.436,5.949 0,0 -5.122,-14.062 -14.732,-3.245 0,0 -16.84,-10.276 -18.827,2.704 C 18.2,17.307 3.411,18.93 0,0" /></g><g
       transform="matrix(2.4814625,0,0,1.8865993,91.970162,154.06732)"
       id="g246"><path
         id="path248"
         style="fill:#8bc53f;fill-opacity:1;fill-rule:nonzero;stroke:none"
         d="m 0,0 c 0,-10.446 -3.336,-18.915 -7.45,-18.915 -4.115,0 -7.451,8.469 -7.451,18.915 0,10.446 3.336,18.915 7.451,18.915 C -3.336,18.915 0,10.446 0,0" /></g><g
       transform="matrix(2.4814625,0,0,1.8865993,54.994396,89.812778)"
       id="g250"><path
         id="path252"
         style="fill:#faaf40;fill-opacity:1;fill-rule:nonzero;stroke:none"
         d="m 0,0 -7.333,21.552 28.84,2 L 19.594,0 Z" /></g><g
       transform="matrix(2.4814625,0,0,1.8865993,638.42914,157.82581)"
       id="g254"><path
         id="path256"
         style="fill:#8bc53f;fill-opacity:1;fill-rule:nonzero;stroke:none"
         d="m 0,0 c 0,-10.446 -3.336,-18.915 -7.45,-18.915 -4.115,0 -7.451,8.469 -7.451,18.915 0,10.446 3.336,18.915 7.451,18.915 C -3.336,18.915 0,10.446 0,0" /></g><g
       transform="matrix(2.4814625,0,0,1.8865993,617.75235,190.85432)"
       id="g258"><path
         id="path260"
         style="fill:#8bc53f;fill-opacity:1;fill-rule:nonzero;stroke:none"
         d="m 0,0 c 3.349,-5.619 3.316,-11.813 -0.076,-13.834 -3.391,-2.021 -8.855,0.895 -12.204,6.515 -3.349,5.619 -3.316,11.812 0.076,13.834 C -8.813,8.536 -3.349,5.619 0,0" /></g><g
       transform="matrix(2.4814625,0,0,1.8865993,655.1661,161.37545)"
       id="g262"><path
         id="path264"
         style="fill:#8bc53f;fill-opacity:1;fill-rule:nonzero;stroke:none"
         d="m 0,0 c -4.556,-4.694 -10.546,-6.271 -13.379,-3.521 -2.833,2.75 -1.436,8.784 3.121,13.478 4.556,4.694 10.546,6.271 13.378,3.521 C 5.953,10.728 4.556,4.694 0,0" /></g><g
       transform="matrix(2.4814625,0,0,1.8865993,601.45336,93.571072)"
       id="g266"><path
         id="path268"
         style="fill:#faaf40;fill-opacity:1;fill-rule:nonzero;stroke:none"
         d="m 0,0 -7.333,21.552 28.84,2 L 19.595,0 Z" /></g></g></svg>